<svg width="512" height="512" viewBox="0 0 512 512" fill="none" xmlns="http://www.w3.org/2000/svg">
<rect width="512" height="512" fill="#E5E5E5"/>
<rect width="512" height="512" fill="#1D1E2C"/>
<path fill-rule="evenodd" clip-rule="evenodd" d="M353.438 59.0564C358.958 53.5377 366.444 50.4375 374.25 50.4375C382.056 50.4375 389.542 53.5377 395.062 59.0564L453.937 117.931C459.456 123.452 462.556 130.938 462.556 138.744C462.556 146.549 459.456 154.036 453.937 159.556L189 424.493C185.777 427.726 181.847 430.165 177.519 431.617L89.2066 461.055C84.0182 462.792 78.4482 463.049 73.122 461.796C67.7957 460.544 62.9239 457.832 59.0534 453.964C55.1829 450.097 52.4669 445.227 51.2101 439.902C49.9534 434.576 50.2057 429.006 51.9388 423.816L81.3763 335.504C82.8246 331.166 85.2637 327.225 88.5001 323.994L353.438 59.0564ZM374.25 79.8687L433.125 138.744L168.187 403.681L79.875 433.119L109.312 344.806L374.25 79.8687Z" fill="#4ECEC4"/>
<path fill-rule="evenodd" clip-rule="evenodd" d="M378.548 208.046L304.954 134.452L325.796 113.61L399.39 187.204L378.577 208.046H378.548ZM109.312 315.375V330.094C109.312 333.997 110.863 337.741 113.624 340.501C116.384 343.262 120.128 344.812 124.031 344.812H138.75V359.531C138.75 363.435 140.301 367.179 143.061 369.939C145.821 372.699 149.565 374.25 153.469 374.25H168.187V388.969C168.187 392.872 169.738 396.616 172.499 399.376C175.259 402.137 179.003 403.687 182.906 403.687H197.625V359.531C197.625 355.627 196.074 351.884 193.314 349.123C190.554 346.363 186.81 344.812 182.906 344.812H168.187V330.094C168.187 326.19 166.637 322.446 163.876 319.686C161.116 316.926 157.372 315.375 153.469 315.375H109.312Z" fill="#4ECEC4"/>
<path fill-rule="evenodd" clip-rule="evenodd" d="M39.7058 28.0808C39.7175 28.0691 39.7334 28.0625 39.75 28.0625C39.7666 28.0625 39.7825 28.0691 39.7942 28.0808L39.9192 28.2058C39.9309 28.2175 39.9375 28.2334 39.9375 28.25C39.9375 28.2666 39.9309 28.2825 39.9192 28.2942L39.3567 28.8567C39.3498 28.8635 39.3415 28.8687 39.3323 28.8718L39.1448 28.9343C39.1338 28.938 39.122 28.9385 39.1107 28.9359C39.0994 28.9332 39.089 28.9275 39.0808 28.9192C39.0726 28.911 39.0668 28.9007 39.0641 28.8894C39.0615 28.8781 39.062 28.8663 39.0657 28.8552L39.1282 28.6677C39.1313 28.6585 39.1364 28.6502 39.1433 28.6433L39.7058 28.0808ZM39.75 28.125L39.875 28.25L39.3125 28.8125L39.125 28.875L39.1875 28.6875L39.75 28.125Z" fill="black"/>
<path fill-rule="evenodd" clip-rule="evenodd" d="M39.7591 28.3971L39.6029 28.2409L39.6471 28.1966L39.8034 28.3529L39.7592 28.3971H39.7591ZM39.1875 28.625V28.6562C39.1875 28.6645 39.1908 28.6725 39.1967 28.6783C39.2025 28.6842 39.2105 28.6875 39.2188 28.6875H39.25V28.7187C39.25 28.727 39.2533 28.735 39.2592 28.7408C39.265 28.7467 39.273 28.75 39.2812 28.75H39.3125V28.7812C39.3125 28.7895 39.3158 28.7975 39.3217 28.8033C39.3275 28.8092 39.3355 28.8125 39.3438 28.8125H39.375V28.7187C39.375 28.7105 39.3717 28.7025 39.3658 28.6967C39.36 28.6908 39.352 28.6875 39.3438 28.6875H39.3125V28.6562C39.3125 28.648 39.3092 28.64 39.3033 28.6342C39.2975 28.6283 39.2895 28.625 39.2812 28.625H39.1875Z" fill="black"/>
</svg>
