<svg width="144" height="144" viewBox="0 0 144 144" fill="none" xmlns="http://www.w3.org/2000/svg">
<path fill-rule="evenodd" clip-rule="evenodd" d="M90.9862 33.3287C92.0674 32.2478 93.5337 31.6406 95.0625 31.6406C96.5913 31.6406 98.0576 32.2478 99.1388 33.3287L110.67 44.86C111.751 45.9412 112.358 47.4074 112.358 48.9363C112.358 50.4651 111.751 51.9313 110.67 53.0126L58.7794 104.903C58.1482 105.536 57.3784 106.014 56.5308 106.298L39.234 112.064C38.2177 112.404 37.1268 112.455 36.0836 112.209C35.0404 111.964 34.0862 111.433 33.3281 110.675C32.5701 109.918 32.0381 108.964 31.792 107.921C31.5458 106.878 31.5952 105.787 31.9347 104.771L37.7003 87.4737C37.984 86.6241 38.4617 85.8522 39.0956 85.2193L90.9862 33.3287ZM95.0625 37.405L106.594 48.9363L54.7031 100.827L37.4062 106.593L43.1719 89.2956L95.0625 37.405Z" fill="#4ECEC4"/>
<path fill-rule="evenodd" clip-rule="evenodd" d="M95.9043 62.5098L81.4902 48.0957L85.5723 44.0136L99.9863 58.4277L95.91 62.5098H95.9043ZM43.1719 83.5312V86.414C43.1719 87.1786 43.4756 87.9119 44.0162 88.4525C44.5569 88.9931 45.2901 89.2968 46.0547 89.2968H48.9375V92.1797C48.9375 92.9442 49.2412 93.6775 49.7819 94.2181C50.3225 94.7588 51.0557 95.0625 51.8203 95.0625H54.7031V97.9453C54.7031 98.7099 55.0068 99.4431 55.5475 99.9837C56.0881 100.524 56.8214 100.828 57.5859 100.828H60.4687V92.1797C60.4687 91.4151 60.165 90.6818 59.6244 90.1412C59.0838 89.6006 58.3505 89.2968 57.5859 89.2968H54.7031V86.414C54.7031 85.6495 54.3994 84.9162 53.8588 84.3756C53.3181 83.8349 52.5849 83.5312 51.8203 83.5312H43.1719Z" fill="#4ECEC4"/>
</svg>
