<svg width="128" height="128" viewBox="0 0 128 128" fill="none" xmlns="http://www.w3.org/2000/svg">
<rect width="128" height="128" fill="#E5E5E5"/>
<rect width="128" height="128" fill="#1D1E2C"/>
<path fill-rule="evenodd" clip-rule="evenodd" d="M84.5812 22.0799C85.7533 20.9082 87.3427 20.25 89 20.25C90.6573 20.25 92.2467 20.9082 93.4187 22.0799L105.919 34.5799C107.09 35.752 107.749 37.3414 107.749 38.9987C107.749 40.6559 107.09 42.2454 105.919 43.4174L49.6687 99.6674C48.9845 100.354 48.15 100.872 47.2312 101.18L28.4812 107.43C27.3797 107.799 26.1971 107.853 25.0662 107.587C23.9354 107.321 22.901 106.746 22.0793 105.924C21.2575 105.103 20.6809 104.069 20.414 102.939C20.1472 101.808 20.2008 100.626 20.5687 99.5237L26.8187 80.7737C27.1262 79.8526 27.6441 79.0159 28.3312 78.3299L84.5812 22.0799ZM89 26.4987L101.5 38.9987L45.25 95.2487L26.5 101.499L32.75 82.7487L89 26.4987Z" fill="#4ECEC4"/>
<path fill-rule="evenodd" clip-rule="evenodd" d="M89.9125 53.7125L74.2875 38.0875L78.7125 33.6625L94.3375 49.2875L89.9188 53.7125H89.9125ZM32.75 76.5V79.625C32.75 80.4538 33.0792 81.2486 33.6653 81.8347C34.2513 82.4207 35.0462 82.75 35.875 82.75H39V85.875C39 86.7038 39.3292 87.4986 39.9153 88.0847C40.5013 88.6707 41.2962 89 42.125 89H45.25V92.125C45.25 92.9538 45.5792 93.7486 46.1653 94.3347C46.7513 94.9207 47.5462 95.25 48.375 95.25H51.5V85.875C51.5 85.0462 51.1708 84.2513 50.5847 83.6653C49.9987 83.0792 49.2038 82.75 48.375 82.75H45.25V79.625C45.25 78.7962 44.9208 78.0013 44.3347 77.4153C43.7487 76.8292 42.9538 76.5 42.125 76.5H32.75Z" fill="#4ECEC4"/>
</svg>
