<svg width="1080" height="1080" viewBox="0 0 1080 1080" fill="none" xmlns="http://www.w3.org/2000/svg">
<rect width="1080" height="1080" fill="black"/>
<path fill-rule="evenodd" clip-rule="evenodd" d="M682.397 249.965C690.506 241.859 701.502 237.305 712.969 237.305C724.435 237.305 735.432 241.859 743.541 249.965L830.025 336.45C838.132 344.559 842.686 355.556 842.686 367.022C842.686 378.488 838.132 389.485 830.025 397.594L440.846 786.774C436.112 791.522 430.338 795.105 423.981 797.238L294.255 840.481C286.633 843.032 278.451 843.41 270.627 841.57C262.803 839.73 255.647 835.746 249.961 830.065C244.275 824.384 240.286 817.23 238.44 809.408C236.594 801.585 236.964 793.403 239.51 785.779L282.752 656.053C284.88 649.68 288.463 643.892 293.217 639.145L682.397 249.965ZM712.969 280.538L799.453 367.022L410.273 756.202L280.547 799.444L323.789 669.717L712.969 280.538Z" fill="white"/>
<path fill-rule="evenodd" clip-rule="evenodd" d="M719.282 468.823L611.177 360.718L641.792 330.102L749.898 438.208L719.325 468.823H719.282ZM323.789 626.484V648.105C323.789 653.84 326.067 659.339 330.122 663.394C334.176 667.449 339.676 669.726 345.41 669.726H367.031V691.348C367.031 697.082 369.309 702.581 373.364 706.636C377.419 710.691 382.918 712.969 388.652 712.969H410.273V734.59C410.273 740.324 412.551 745.823 416.606 749.878C420.661 753.933 426.16 756.211 431.895 756.211H453.516V691.348C453.516 685.613 451.238 680.114 447.183 676.059C443.128 672.004 437.629 669.726 431.895 669.726H410.273V648.105C410.273 642.371 407.995 636.872 403.941 632.817C399.886 628.762 394.387 626.484 388.652 626.484H323.789Z" fill="white"/>
</svg>
