<svg width="128" height="128" viewBox="0 0 128 128" fill="none" xmlns="http://www.w3.org/2000/svg">
<path fill-rule="evenodd" clip-rule="evenodd" d="M80.8766 29.6255C81.8377 28.6647 83.141 28.125 84.5 28.125C85.859 28.125 87.1623 28.6647 88.1234 29.6255L98.3734 39.8755C99.3342 40.8366 99.8739 42.1399 99.8739 43.4989C99.8739 44.8579 99.3342 46.1612 98.3734 47.1223L52.2484 93.2473C51.6873 93.8101 51.003 94.2347 50.2496 94.4875L34.8746 99.6125C33.9713 99.915 33.0016 99.9596 32.0743 99.7416C31.147 99.5235 30.2989 99.0513 29.625 98.378C28.9512 97.7047 28.4783 96.8569 28.2595 95.9298C28.0407 95.0027 28.0846 94.0329 28.3864 93.1294L33.5114 77.7544C33.7635 76.9992 34.1882 76.3131 34.7516 75.7505L80.8766 29.6255ZM84.5 33.2489L94.75 43.4989L48.625 89.6239L33.25 94.7489L38.375 79.3739L84.5 33.2489Z" fill="#4ECEC4"/>
<path fill-rule="evenodd" clip-rule="evenodd" d="M85.2482 55.5642L72.4357 42.7517L76.0642 39.1232L88.8767 51.9357L85.2534 55.5642H85.2482ZM38.375 74.25V76.8125C38.375 77.4921 38.645 78.1439 39.1255 78.6244C39.6061 79.105 40.2579 79.375 40.9375 79.375H43.5V81.9375C43.5 82.6171 43.77 83.2689 44.2505 83.7494C44.7311 84.23 45.3829 84.5 46.0625 84.5H48.625V87.0625C48.625 87.7421 48.895 88.3939 49.3755 88.8744C49.8561 89.355 50.5079 89.625 51.1875 89.625H53.75V81.9375C53.75 81.2579 53.48 80.6061 52.9995 80.1255C52.5189 79.645 51.8671 79.375 51.1875 79.375H48.625V76.8125C48.625 76.1329 48.355 75.4811 47.8745 75.0005C47.3939 74.52 46.7421 74.25 46.0625 74.25H38.375Z" fill="#4ECEC4"/>
</svg>
