<svg width="512" height="512" viewBox="0 0 512 512" fill="none" xmlns="http://www.w3.org/2000/svg">
<rect width="512" height="512" fill="#1D1E2C"/>
<path fill-rule="evenodd" clip-rule="evenodd" d="M337.502 89.9965C342.143 85.3566 348.437 82.75 355 82.75C361.563 82.75 367.857 85.3566 372.498 89.9965L421.998 139.496C426.638 144.138 429.245 150.432 429.245 156.995C429.245 163.558 426.638 169.852 421.998 174.493L199.248 397.243C196.539 399.961 193.234 402.011 189.596 403.232L115.346 427.982C110.983 429.443 106.3 429.659 101.822 428.606C97.3441 427.553 93.2481 425.272 89.9939 422.021C86.7398 418.769 84.4562 414.675 83.3996 410.198C82.343 405.72 82.5551 401.037 84.0122 396.674L108.762 322.424C109.98 318.776 112.031 315.463 114.752 312.746L337.502 89.9965ZM355 107.495L404.5 156.995L181.75 379.745L107.5 404.495L132.25 330.245L355 107.495Z" fill="#4ECEC4"/>
<path fill-rule="evenodd" clip-rule="evenodd" d="M358.613 215.261L296.739 153.386L314.262 135.863L376.137 197.738L358.638 215.261H358.613ZM132.25 305.5V317.875C132.25 321.157 133.554 324.305 135.875 326.625C138.195 328.946 141.343 330.25 144.625 330.25H157V342.625C157 345.907 158.304 349.055 160.625 351.375C162.945 353.696 166.093 355 169.375 355H181.75V367.375C181.75 370.657 183.054 373.805 185.375 376.125C187.695 378.446 190.843 379.75 194.125 379.75H206.5V342.625C206.5 339.343 205.196 336.195 202.875 333.874C200.555 331.554 197.407 330.25 194.125 330.25H181.75V317.875C181.75 314.593 180.446 311.445 178.125 309.124C175.805 306.804 172.657 305.5 169.375 305.5H132.25Z" fill="#4ECEC4"/>
<path fill-rule="evenodd" clip-rule="evenodd" d="M39.7058 28.0808C39.7175 28.0691 39.7334 28.0625 39.75 28.0625C39.7666 28.0625 39.7825 28.0691 39.7942 28.0808L39.9192 28.2058C39.9309 28.2175 39.9375 28.2334 39.9375 28.25C39.9375 28.2666 39.9309 28.2825 39.9192 28.2942L39.3567 28.8567C39.3498 28.8635 39.3415 28.8687 39.3323 28.8718L39.1448 28.9343C39.1338 28.938 39.122 28.9385 39.1107 28.9359C39.0994 28.9332 39.089 28.9275 39.0808 28.9192C39.0726 28.911 39.0668 28.9007 39.0641 28.8894C39.0615 28.8781 39.062 28.8663 39.0657 28.8552L39.1282 28.6677C39.1313 28.6585 39.1364 28.6502 39.1433 28.6433L39.7058 28.0808ZM39.75 28.125L39.875 28.25L39.3125 28.8125L39.125 28.875L39.1875 28.6875L39.75 28.125Z" fill="black"/>
<path fill-rule="evenodd" clip-rule="evenodd" d="M39.7591 28.3971L39.6029 28.2409L39.6471 28.1966L39.8034 28.3529L39.7592 28.3971H39.7591ZM39.1875 28.625V28.6562C39.1875 28.6645 39.1908 28.6725 39.1967 28.6783C39.2025 28.6842 39.2105 28.6875 39.2188 28.6875H39.25V28.7187C39.25 28.727 39.2533 28.735 39.2592 28.7408C39.265 28.7467 39.273 28.75 39.2812 28.75H39.3125V28.7812C39.3125 28.7895 39.3158 28.7975 39.3217 28.8033C39.3275 28.8092 39.3355 28.8125 39.3438 28.8125H39.375V28.7187C39.375 28.7105 39.3717 28.7025 39.3658 28.6967C39.36 28.6908 39.352 28.6875 39.3438 28.6875H39.3125V28.6562C39.3125 28.648 39.3092 28.64 39.3033 28.6342C39.2975 28.6283 39.2895 28.625 39.2812 28.625H39.1875Z" fill="black"/>
</svg>
