<svg width="512" height="512" viewBox="0 0 512 512" fill="none" xmlns="http://www.w3.org/2000/svg">
<path fill-rule="evenodd" clip-rule="evenodd" d="M323.506 118.502C327.351 114.659 332.564 112.5 338 112.5C343.436 112.5 348.649 114.659 352.493 118.502L393.494 159.502C397.337 163.346 399.496 168.56 399.496 173.996C399.496 179.431 397.337 184.645 393.494 188.489L208.993 372.989C206.749 375.24 204.012 376.939 200.998 377.95L139.498 398.45C135.885 399.66 132.006 399.839 128.297 398.966C124.588 398.094 121.195 396.205 118.5 393.512C115.805 390.819 113.913 387.428 113.038 383.719C112.163 380.011 112.339 376.132 113.545 372.518L134.045 311.018C135.054 307.997 136.753 305.252 139.006 303.002L323.506 118.502ZM338 132.996L379 173.996L194.5 358.496L133 378.996L153.5 317.496L338 132.996Z" fill="#4ECEC4"/>
<path fill-rule="evenodd" clip-rule="evenodd" d="M340.993 222.257L289.743 171.007L304.257 156.493L355.507 207.743L341.013 222.257H340.993ZM153.5 297V307.25C153.5 309.968 154.58 312.576 156.502 314.498C158.424 316.42 161.032 317.5 163.75 317.5H174V327.75C174 330.468 175.08 333.076 177.002 334.998C178.924 336.92 181.532 338 184.25 338H194.5V348.25C194.5 350.968 195.58 353.576 197.502 355.498C199.424 357.42 202.032 358.5 204.75 358.5H215V327.75C215 325.031 213.92 322.424 211.998 320.502C210.076 318.58 207.468 317.5 204.75 317.5H194.5V307.25C194.5 304.531 193.42 301.924 191.498 300.002C189.576 298.08 186.968 297 184.25 297H153.5Z" fill="#4ECEC4"/>
</svg>
