<svg width="128" height="128" viewBox="0 0 128 128" fill="none" xmlns="http://www.w3.org/2000/svg">
<rect width="128" height="128" fill="#1D1E2C"/>
<path fill-rule="evenodd" clip-rule="evenodd" d="M84.0977 22.2213C85.258 21.0614 86.8315 20.4097 88.4722 20.4097C90.1129 20.4097 91.6864 21.0614 92.8468 22.2213L105.222 34.5963C106.382 35.7567 107.033 37.3302 107.033 38.9709C107.033 40.6116 106.382 42.1851 105.222 43.3455L49.5343 99.033C48.8569 99.7124 48.0307 100.225 47.1212 100.53L28.5587 106.718C27.4681 107.083 26.2973 107.137 25.1778 106.874C24.0583 106.61 23.0343 106.04 22.2207 105.227C21.4072 104.415 20.8363 103.391 20.5721 102.272C20.308 101.152 20.361 99.9815 20.7253 98.8906L26.9128 80.3281C27.2172 79.4163 27.7299 78.588 28.4102 77.9088L84.0977 22.2213ZM88.4722 26.5959L100.847 38.9709L45.1597 94.6584L26.5972 100.846L32.7847 82.2834L88.4722 26.5959Z" fill="#4ECEC4"/>
<path fill-rule="evenodd" clip-rule="evenodd" d="M89.3756 53.5376L73.9069 38.0688L78.2876 33.6881L93.7564 49.1568L89.3818 53.5376H89.3756ZM32.7847 76.0972V79.1909C32.7847 80.0115 33.1107 80.7984 33.6909 81.3786C34.2711 81.9588 35.058 82.2847 35.8785 82.2847H38.9722V85.3784C38.9722 86.199 39.2982 86.9859 39.8784 87.5661C40.4586 88.1463 41.2455 88.4722 42.066 88.4722H45.1597V91.5659C45.1597 92.3865 45.4857 93.1734 46.0659 93.7536C46.6461 94.3338 47.433 94.6597 48.2535 94.6597H51.3472V85.3784C51.3472 84.5579 51.0213 83.771 50.4411 83.1908C49.8609 82.6106 49.074 82.2847 48.2535 82.2847H45.1597V79.1909C45.1597 78.3704 44.8338 77.5835 44.2536 77.0033C43.6734 76.4231 42.8865 76.0972 42.066 76.0972H32.7847Z" fill="#4ECEC4"/>
<g clip-path="url(#clip0)">
<path fill-rule="evenodd" clip-rule="evenodd" d="M9.92646 7.0202C9.92939 7.01727 9.93336 7.01562 9.93751 7.01562C9.94165 7.01562 9.94562 7.01727 9.94855 7.0202L9.9798 7.05145C9.98273 7.05438 9.98438 7.05835 9.98438 7.0625C9.98438 7.06664 9.98273 7.07061 9.9798 7.07354L9.83918 7.21417C9.83747 7.21588 9.83538 7.21718 9.83309 7.21795L9.78621 7.23357C9.78346 7.2345 9.7805 7.23463 9.77767 7.23397C9.77485 7.2333 9.77226 7.23186 9.77021 7.22981C9.76815 7.22776 9.76671 7.22517 9.76604 7.22235C9.76538 7.21952 9.76551 7.21656 9.76643 7.21381L9.78205 7.16693C9.78282 7.16463 9.78412 7.16254 9.78584 7.16082L9.92646 7.0202V7.0202ZM9.93751 7.03125L9.96876 7.0625L9.82813 7.20312L9.78126 7.21875L9.79688 7.17187L9.93751 7.03125Z" fill="black"/>
<path fill-rule="evenodd" clip-rule="evenodd" d="M9.93978 7.09929L9.90072 7.06023L9.91178 7.04916L9.95084 7.08823L9.9398 7.09929H9.93978ZM9.79688 7.15626V7.16407C9.79688 7.16614 9.7977 7.16813 9.79916 7.16959C9.80063 7.17106 9.80262 7.17188 9.80469 7.17188H9.8125V7.1797C9.8125 7.18177 9.81332 7.18375 9.81479 7.18522C9.81625 7.18668 9.81824 7.18751 9.82031 7.18751H9.82812V7.19532C9.82812 7.19739 9.82895 7.19938 9.83041 7.20084C9.83188 7.20231 9.83387 7.20313 9.83594 7.20313H9.84375V7.1797C9.84375 7.17762 9.84293 7.17564 9.84146 7.17417C9.84 7.17271 9.83801 7.17188 9.83594 7.17188H9.82812V7.16407C9.82812 7.162 9.8273 7.16001 9.82584 7.15855C9.82437 7.15708 9.82238 7.15626 9.82031 7.15626H9.79688Z" fill="black"/>
</g>
<defs>
<clipPath id="clip0">
<rect width="0.25" height="0.25" fill="white" transform="translate(9.75 7)"/>
</clipPath>
</defs>
</svg>
