<svg width="144" height="144" viewBox="0 0 144 144" fill="none" xmlns="http://www.w3.org/2000/svg">
<rect width="144" height="144" fill="#1D1E2C"/>
<path fill-rule="evenodd" clip-rule="evenodd" d="M94.6099 24.999C95.9152 23.694 97.6855 22.9609 99.5312 22.9609C101.377 22.9609 103.147 23.694 104.453 24.999L118.375 38.9209C119.679 40.2262 120.413 41.9965 120.413 43.8423C120.413 45.6881 119.679 47.4583 118.375 48.7636L55.7261 111.412C54.964 112.176 54.0346 112.753 53.0113 113.097L32.1285 120.058C30.9016 120.468 29.5845 120.529 28.325 120.233C27.0656 119.937 25.9135 119.295 24.9983 118.381C24.0831 117.466 23.4408 116.315 23.1436 115.056C22.8465 113.796 22.9061 112.479 23.3159 111.252L30.2769 90.3692C30.6194 89.3434 31.1961 88.4115 31.9614 87.6474L94.6099 24.999ZM99.5312 29.9204L113.453 43.8423L50.8047 106.491L29.9219 113.452L36.8828 92.5688L99.5312 29.9204Z" fill="#4ECEC4"/>
<path fill-rule="evenodd" clip-rule="evenodd" d="M100.548 60.2298L83.1452 42.8274L88.0735 37.8991L105.476 55.3014L100.555 60.2298H100.548ZM36.8828 85.6093V89.0898C36.8828 90.0129 37.2495 90.8982 37.9022 91.5509C38.5549 92.2036 39.4402 92.5703 40.3633 92.5703H43.8437V96.0508C43.8437 96.9738 44.2104 97.8591 44.8632 98.5118C45.5159 99.1645 46.4011 99.5312 47.3242 99.5312H50.8047V103.012C50.8047 103.935 51.1714 104.82 51.8241 105.473C52.4768 106.125 53.3621 106.492 54.2852 106.492H57.7656V96.0508C57.7656 95.1277 57.3989 94.2424 56.7462 93.5897C56.0935 92.937 55.2082 92.5703 54.2852 92.5703H50.8047V89.0898C50.8047 88.1667 50.438 87.2815 49.7853 86.6287C49.1326 85.976 48.2473 85.6093 47.3242 85.6093H36.8828Z" fill="#4ECEC4"/>
<g clip-path="url(#clip0)">
<path fill-rule="evenodd" clip-rule="evenodd" d="M11.1673 7.89772C11.1706 7.89443 11.175 7.89258 11.1797 7.89258C11.1844 7.89258 11.1888 7.89443 11.1921 7.89772L11.2273 7.93288C11.2306 7.93618 11.2324 7.94065 11.2324 7.94531C11.2324 7.94997 11.2306 7.95444 11.2273 7.95774L11.0691 8.11594C11.0672 8.11787 11.0648 8.11933 11.0622 8.12019L11.0095 8.13777C11.0064 8.13881 11.0031 8.13896 10.9999 8.13821C10.9967 8.13747 10.9938 8.13585 10.9915 8.13354C10.9892 8.13123 10.9875 8.12832 10.9868 8.12514C10.986 8.12196 10.9862 8.11863 10.9872 8.11554L11.0048 8.0628C11.0057 8.06021 11.0071 8.05786 11.0091 8.05593L11.1673 7.89772V7.89772ZM11.1797 7.91015L11.2149 7.94531L11.0566 8.10351L11.0039 8.12109L11.0215 8.06836L11.1797 7.91015Z" fill="black"/>
<path fill-rule="evenodd" clip-rule="evenodd" d="M11.1823 7.98669L11.1383 7.94274L11.1508 7.9303L11.1947 7.97424L11.1823 7.98669H11.1823ZM11.0215 8.05078V8.05957C11.0215 8.0619 11.0224 8.06413 11.0241 8.06578C11.0257 8.06743 11.0279 8.06836 11.0303 8.06836H11.0391V8.07715C11.0391 8.07948 11.04 8.08171 11.0416 8.08336C11.0433 8.08501 11.0455 8.08593 11.0479 8.08593H11.0566V8.09472C11.0566 8.09705 11.0576 8.09929 11.0592 8.10094C11.0609 8.10259 11.0631 8.10351 11.0654 8.10351H11.0742V8.07715C11.0742 8.07481 11.0733 8.07258 11.0716 8.07093C11.07 8.06928 11.0678 8.06836 11.0654 8.06836H11.0566V8.05957C11.0566 8.05724 11.0557 8.055 11.0541 8.05335C11.0524 8.0517 11.0502 8.05078 11.0479 8.05078H11.0215Z" fill="black"/>
</g>
<defs>
<clipPath id="clip0">
<rect width="0.28125" height="0.28125" fill="white" transform="translate(10.9688 7.875)"/>
</clipPath>
</defs>
</svg>
